<?xml version="1.0" encoding="utf-8"?>
<!-- Generator: Adobe Illustrator 19.2.1, SVG Export Plug-In . SVG Version: 6.00 Build 0)  -->
<svg version="1.1" id="Layer_1" xmlns="http://www.w3.org/2000/svg" xmlns:xlink="http://www.w3.org/1999/xlink" x="0px" y="0px"
	 viewBox="0 0 66 33" style="enable-background:new 0 0 66 33;" xml:space="preserve">
<style type="text/css">
	.st0{fill:#D86609;}
	.st1{fill:#FFFFFF;}
</style>
<path class="st0" d="M24.1,33h1.6h3.9l9.2-25.4L48.1,33h5.7l12-33h-5.5l-4.7,13.8l0,0.1l-2.9,8.5c-0.8,2.2-1.3,4.2-1.7,6
	c-0.1-0.6-0.4-1.5-0.8-2.8c-0.4-1.3-0.7-2.2-0.9-2.8L46.3,14l-0.1-0.2L41.7,0h0h-5.5h0l0,0l-4.7,13.7l0,0.1l-2.9,8.5
	c-0.5,1.5-0.9,2.8-1.3,4.2L24.1,33z"/>
<path class="st1" d="M27.3,26.5L17.7,0H12L0,33h5.5l3.1-9.1h12.2l3.2,9.1h1.6h3.9L27.3,26.5z M31.5,13.8L31.5,13.8 M10.2,19.2
	l2.9-8.6c0.8-2.2,1.3-4.2,1.7-6c0.1,0.6,0.4,1.5,0.8,2.8c0.4,1.3,0.7,2.2,0.9,2.8l3,8.9H10.2z"/>
</svg>
